<svg id="Layer_1" data-name="Layer 1" xmlns="http://www.w3.org/2000/svg" viewBox="0 0 89.04 89.04"><defs><style>.cls-1{fill:#2a445f;}.cls-2{fill:#fefefe;fill-rule:evenodd;}</style></defs><title>tumblr</title><circle class="cls-1" cx="44.52" cy="44.52" r="44.52"/><path class="cls-2" d="M35.41,52c0-3.52,0-7,0-10.55,0-.68-0.21-0.84-0.86-0.83-1.71,0-3.43,0-5.14,0-0.63,0-.88-0.12-0.86-0.82,0.05-1.8,0-3.61,0-5.41a1,1,0,0,1,.67-1.06A18.72,18.72,0,0,0,36.93,27a14.17,14.17,0,0,0,2.56-7.7,0.68,0.68,0,0,1,.87-0.82c1.74,0,3.49,0,5.23,0,0.67,0,.85.19,0.84,0.85,0,4,0,8,0,12.06,0,0.73.19,0.94,0.92,0.93,4,0,7.92,0,11.88,0,0.77,0,.94.23,0.93,0.94q-0.06,3.32,0,6.65c0,0.65-.22.77-0.81,0.77-4,0-8,0-12,0-0.7,0-1,.12-1,0.9,0,5.11,0,10.22,0,15.34a10.44,10.44,0,0,0,.15,1.76,5.61,5.61,0,0,0,5.68,4.85,20.85,20.85,0,0,0,8.23-1.84c1-.39,1-0.39,1,0.62,0,2.22,0,4.43,0,6.65a0.64,0.64,0,0,1-.48.79C55.67,71,50.3,71.92,44.79,71.21a12.92,12.92,0,0,1-5.41-1.84,8.2,8.2,0,0,1-3.94-7.13c-0.07-3.43,0-6.85,0-10.28h0Z" transform="translate(-0.48 -0.48)"/></svg>